<?xml version="1.0" encoding="utf-8"?>
<!-- Generator: Adobe Illustrator 16.0.0, SVG Export Plug-In . SVG Version: 6.00 Build 0)  -->
<!DOCTYPE svg PUBLIC "-//W3C//DTD SVG 1.1//EN" "http://www.w3.org/Graphics/SVG/1.1/DTD/svg11.dtd">
<svg version="1.1" id="Слой_1" xmlns="http://www.w3.org/2000/svg" xmlns:xlink="http://www.w3.org/1999/xlink" x="0px" y="0px"
	 width="186.994px" height="303.948px" viewBox="0 0 186.994 303.948" enable-background="new 0 0 186.994 303.948"
	 xml:space="preserve">
<path fill-rule="evenodd" clip-rule="evenodd" fill="#4F97D3" d="M62.673,303.948c12.463-37.441,20.388-77.144,32.873-114.653
	c-13.626-3.493-26.001-5.598-37.595-9.835c-38.853-14.202-61.234-51.115-57.56-97.097C3.402,44.696,35.16,13.025,69.201,3.308
	c62.027-17.706,130.797,38.048,115.678,110.587c-6.701,32.146-22.785,58.998-41.657,84.66c-22.93,31.181-46.517,61.88-69.896,92.729
	C69.998,295.674,66.234,299.734,62.673,303.948C61.161,303.195,64.186,304.702,62.673,303.948z M22.509,92.752
	c-3.291,35.137,26.953,71.467,70.051,72.758c39.128,1.171,71.482-31.58,71.716-71.187c0.236-40.277-30.904-71.964-70.747-71.986
	C53.775,22.315,22.635,53.19,22.509,92.752z"/>
<path fill-rule="evenodd" clip-rule="evenodd" fill="#4F97D3" d="M59.696,94.059c-0.013-20.177,13.706-34.299,33.379-34.36
	c20.027-0.063,34.637,14.734,34.451,34.896c-0.167,18.165-15.575,33.502-33.859,33.701C74.634,128.503,59.708,113.46,59.696,94.059z
	"/>
</svg>
