<?xml version="1.0" encoding="utf-8"?>
<!-- Generator: Adobe Illustrator 16.0.0, SVG Export Plug-In . SVG Version: 6.00 Build 0)  -->
<!DOCTYPE svg PUBLIC "-//W3C//DTD SVG 1.1//EN" "http://www.w3.org/Graphics/SVG/1.1/DTD/svg11.dtd">
<svg version="1.1" id="Слой_1" xmlns="http://www.w3.org/2000/svg" xmlns:xlink="http://www.w3.org/1999/xlink" x="0px" y="0px"
	 width="212.613px" height="334.202px" viewBox="0 0 212.613 334.202" enable-background="new 0 0 212.613 334.202"
	 xml:space="preserve">
<path d="M82.821,331.813c-0.059,0.327-0.118,0.65-0.177,0.977c0.252-0.289,0.497-0.568,0.745-0.853
	C83.2,331.897,83.011,331.858,82.821,331.813z"/>
<path fill="#F24841" d="M129.256,3.806C80.056-6.413,31.928,16.623,10.199,62.393c-21.293,44.848-8.27,100.695,29.98,130.837
	c18.295,14.418,39.074,21.778,63.367,24.04c-6.93,38.3-13.717,75.811-20.725,114.543c0.189,0.044,0.379,0.084,0.568,0.124
	c17.007-19.469,26.083-28.269,35.925-41.606c33.366-45.215,68.371-89.122,87.141-143.627
	C227.951,84.283,191.003,16.628,129.256,3.806z M106.593,151.816c-22.738,0.267-43.055-20.157-43.239-43.468
	c-0.185-23.401,19.795-44.054,42.7-44.138c23.206-0.085,42.886,19.936,42.903,43.647
	C148.973,131.847,129.995,151.542,106.593,151.816z"/>
</svg>
