<?xml version="1.0" encoding="utf-8"?>
<!-- Generator: Adobe Illustrator 16.0.0, SVG Export Plug-In . SVG Version: 6.00 Build 0)  -->
<!DOCTYPE svg PUBLIC "-//W3C//DTD SVG 1.1//EN" "http://www.w3.org/Graphics/SVG/1.1/DTD/svg11.dtd">
<svg version="1.1" id="Слой_1" xmlns="http://www.w3.org/2000/svg" xmlns:xlink="http://www.w3.org/1999/xlink" x="0px" y="0px"
	 width="163.744px" height="265.338px" viewBox="0 0 163.744 265.338" enable-background="new 0 0 163.744 265.338"
	 xml:space="preserve">
<path fill-rule="evenodd" clip-rule="evenodd" fill="#FFFFFF" d="M51.687,263.32c1.417,0.673,2.832,1.346,4.249,2.019
	c2.101-2.358,4.384-4.582,6.276-7.099c18.403-24.477,36.917-48.872,55.052-73.545c19.964-27.16,39.199-54.304,45.31-89.071
	C171.275,46.115,130.675-9.324,65.98,1.328C33.438,6.686,6.299,34.513,1.272,66.841c-5.264,33.853,5.707,62.815,34.808,81.702
	c13.533,8.783,30.342,12.521,47.143,19.126C73.282,197.82,62.484,230.57,51.687,263.32z"/>
<path fill-rule="evenodd" clip-rule="evenodd" fill="#EF4941" d="M55.936,265.338c10.797-32.75,17.346-67.519,27.287-97.669
	c-16.801-6.605-33.609-10.343-47.143-19.126C6.979,129.657-3.992,100.694,1.272,66.841C6.299,34.513,33.438,6.686,65.98,1.328
	c64.694-10.652,105.295,44.787,96.594,94.295c-6.111,34.768-25.346,61.911-45.31,89.071c-18.136,24.673-36.649,49.068-55.052,73.545
	C55.936,265.338,58.036,262.98,55.936,265.338C54.519,264.666,57.352,266.011,55.936,265.338z M144.12,81.904
	c0.232-34.05-27.549-62.637-61.361-63.14c-33.407-0.498-63.938,29.408-63.837,62.53c0.104,34.005,28.199,62.329,62.026,62.532
	C116.349,144.037,143.879,117.051,144.12,81.904z"/>
<path fill-rule="evenodd" clip-rule="evenodd" fill="#FFFFFF" d="M144.12,81.904c-0.24,35.147-27.771,62.133-63.172,61.923
	c-33.828-0.203-61.922-28.527-62.026-62.532c-0.1-33.122,30.43-63.028,63.837-62.53C116.57,19.267,144.352,47.854,144.12,81.904z
	 M110.944,81.327c0.014-16.021-12.448-29.035-27.918-29.154C65.96,52.042,52.445,65.076,52.558,81.56
	c0.113,16.58,12.684,29.402,28.854,29.429C98.931,111.02,110.929,98.969,110.944,81.327z"/>
<path fill-rule="evenodd" clip-rule="evenodd" fill="#F24841" d="M110.944,81.327c-0.016,17.643-12.013,29.693-29.532,29.662
	c-16.17-0.026-28.742-12.849-28.854-29.429C52.445,65.076,65.96,52.042,83.026,52.172C98.496,52.292,110.958,65.305,110.944,81.327z
	"/>
</svg>
